# xmcd CD database file
#
# Track frame offsets:
#	150
#	25930
#	44495
#	61627
#	87557
#
# Disc length: 1512 seconds
#
# Revision: 7
# Processed by: cddbd v1.5PL3 Copyright (c) Steve Scherf et al.
# Submitted via: CDex 1.50beta9
#
DISCID=3905e605
DTITLE=Yuki Koyanagi - あなたのキスを数えましょう
DYEAR=1900
DGENRE=JPop
TTITLE0=あなたのキスを数えましょう - You were mine -
TTITLE1=PARADISE
TTITLE2=天使のささやき
TTITLE3=あなたのキスを数えましょう - You were mine -(English version)
TTITLE4=あなたのキスを数えましょう - You were mine -(Instrumental)
EXTD=
EXTT0=
EXTT1=
EXTT2=
EXTT3=
EXTT4=
PLAYORDER=
